inDegrees=yes
name=ik_S55_A11_T01
DataType=double
version=3
OpenSimVersion=4.3-2021-08-27-4bc7ad9
endheader
time	pelvis_tilt	pelvis_list	pelvis_rotation	pelvis_tx	pelvis_ty	pelvis_tz	hip_flexion_r	hip_adduction_r	hip_rotation_r	knee_angle_r	knee_angle_r_beta	ankle_angle_r	subtalar_angle_r	mtp_angle_r	hip_flexion_l	hip_adduction_l	hip_rotation_l	knee_angle_l	knee_angle_l_beta	ankle_angle_l	subtalar_angle_l	mtp_angle_l	lumbar_extension	lumbar_bending	lumbar_rotation	arm_flex_r	arm_add_r	arm_rot_r	elbow_flex_r	pro_sup_r	wrist_flex_r	wrist_dev_r	arm_flex_l	arm_add_l	arm_rot_l	elbow_flex_l	pro_sup_l	wrist_flex_l	wrist_dev_l
0	0	0	0	0	0.9399999999999999	0	0	0	0	0	0	0	0	0	0	0	0	0	0	0	0	0	0	0	0	0	0	0	0	89.99999999963507	0	0	0	0	0	0	89.99999999869995	0	0
0.02	0.4408398833368609	0.7217029555169601	30.52729774491679	0	0.9399999999999999	0	1.604290665219119	-0.7517201461830889	-0.5390568827700651	2.498430905735409	0.04360584543866696	0	0	0	1.604290665219119	-0.7517201461830889	-0.5390568827700651	2.498430905735409	0.04360584543866696	0	0	0	0.535939955883594	1.013233810754459	14.51766218201355	-1.556938340067209	-4.731609210181738	-4.185604581757634	5.758731913057473	102.9817779533628	0	0	-1.4277237173056	-3.502595388694119	-7.36527229550594	5.708404315540043	118.779980082106	0	0
0.04	0.4717938818422486	0.7243235676864574	31.06041656771141	0	0.9399999999999999	0	4.191789212804813	-1.8931131131548	-1.483742396642814	4.6939328024363	0.08192458226987794	0	0	0	4.191789212804813	-1.8931131131548	-1.483742396642814	4.6939328024363	0.08192458226987794	0	0	0	0.5393192227844699	1.026421835901488	14.01289209242758	-1.575263448630006	-4.726365530229809	-4.215252271802859	5.74349600074683	102.985869471183	0	0	-1.441705658548819	-3.511207001126104	-7.362249997740863	5.707639187233851	118.846480933218	0	0
0.06	0.472837240143606	0.7275987873385361	31.12235353209634	0	0.9399999999999999	0	4.556749007111141	-2.040363982076024	-1.612678147102425	4.953637867189836	0.08645729073393223	0	0	0	4.556749007111141	-2.040363982076024	-1.612678147102425	4.953637867189836	0.08645729073393223	0	0	0	0.5427353140109388	1.025068956395684	13.95327014831036	-1.589059149088747	-4.73704083028921	-4.22372254804326	5.731654894261162	102.9334259768694	0	0	-1.478904786476855	-3.534077728959939	-7.324097603914997	5.718094686074913	118.7251769110244	0	0
0.08	0.4631927743412804	0.737293483017096	31.3570089505842	0	0.9399999999999999	0	6.179880981824899	-2.705603685415686	-2.17351973802177	6.402805831137486	0.1117500431192412	0	0	0	6.179880981824899	-2.705603685415686	-2.17351973802177	6.402805831137486	0.1117500431192412	0	0	0	0.5513877601141063	1.012478252465385	13.70514118763425	-1.581461971154534	-4.699525352822449	-4.198694261889463	5.715834092353733	102.9709546933473	0	0	-1.504467650567555	-3.510294601638647	-7.342661378877222	5.728890641593074	118.7881898883983	0	0
0.1	0.4673205431729121	0.7442043437860337	31.39082017717858	0	0.9399999999999999	0	6.38030169277167	-2.78052713549907	-2.240704498681276	6.565422162656463	0.114588233521762	0	0	0	6.38030169277167	-2.78052713549907	-2.240704498681276	6.565422162656463	0.114588233521762	0	0	0	0.5590974101434243	1.013917014256259	13.67659865203599	-1.615450736011066	-4.711154813881281	-4.196014916275229	5.734394921909157	102.9003063519738	0	0	-1.53143411267469	-3.524579896515098	-7.332730422199737	5.758257591886615	118.7019387032795	0	0
0.12	0.4614796066671716	0.731729807798524	31.41881900457135	0	0.9399999999999999	0	6.542982274316445	-2.841833307261316	-2.295296124403191	6.698376373427243	0.1169087222541026	0	0	0	6.542982274316445	-2.841833307261316	-2.295296124403191	6.698376373427243	0.1169087222541026	0	0	0	0.5478663778123006	1.005254249203259	13.64576976373985	-1.60273346048653	-4.691321154141035	-4.072261971654805	5.741226872802893	102.7887333878121	0	0	-1.509558535094295	-3.533289603498499	-7.283368391559999	5.74987925973658	118.6934125251216	0	0
0.14	0.4706613161880088	0.7392671211433428	31.46241707409933	0	0.9399999999999999	0	6.882210872129839	-2.971108639144698	-2.409199122373664	6.978675572310717	0.1218008661653216	0	0	0	6.882210872129839	-2.971108639144698	-2.409199122373664	6.978675572310717	0.1218008661653216	0	0	0	0.5608209744618153	1.002738833700622	13.60342794025633	-1.639187509970746	-4.687061203152195	-4.070027973108884	5.758461868576519	102.7305736964878	0	0	-1.53973568521262	-3.543035643738143	-7.226389432694993	5.742213629574489	118.5842096110299	0	0
0.16	0.4822840299140002	0.7450943177486713	31.85030331641248	0	0.9399999999999999	0	8.387842502984137	-3.548407397395301	-2.906221692217006	8.398354506040464	0.1465789378801081	0	0	0	8.387842502984137	-3.548407397395301	-2.906221692217006	8.398354506040464	0.1465789378801081	0	0	0	0.5674052231622532	1.005601532722292	13.22204808143452	-1.662536301558758	-4.680529274867876	-4.088299068741462	5.772009709425541	102.7779279561183	0	0	-1.555346512647964	-3.53660305491467	-7.237482178759552	5.739842753732332	118.6507659804885	0	0
0.18	0.4858217224719876	0.7445834614423801	31.88752759687123	0	0.9399999999999999	0	8.524695151904485	-3.595129074019825	-2.949995986923942	8.513286664728493	0.1485848824656388	0	0	0	8.524695151904485	-3.595129074019825	-2.949995986923942	8.513286664728493	0.1485848824656388	0	0	0	0.5704513872757815	1.0016422556367	13.20088321177922	-1.657364287374914	-4.664667223734042	-4.0694596843463	5.745410504239838	102.7278358306385	0	0	-1.555012113408082	-3.535209987432454	-7.183617194725868	5.712713780764578	118.5766745210433	0	0
0.2	0.4817037476654082	0.7419823338846463	31.92279818933323	0	0.9399999999999999	0	8.727645567948779	-3.666982447526117	-3.015492218794593	8.688280998305425	0.1516391097588895	0	0	0	8.727645567948779	-3.666982447526117	-3.015492218794593	8.688280998305425	0.1516391097588895	0	0	0	0.5667112466604989	0.9985943742975461	13.16652250454563	-1.645317464798879	-4.65749571908274	-4.041883260756795	5.729291220465799	102.6730946210314	0	0	-1.54364232513347	-3.537212213935893	-7.20427095467717	5.706701313341955	118.5542140383867	0	0
0.22	0.4861487340812999	0.7567281222750232	31.92204035084286	0	0.9399999999999999	0	8.807484848008897	-3.698197276408666	-3.041529714965934	8.768665554041947	0.1530420849242447	0	0	0	8.807484848008897	-3.698197276408666	-3.041529714965934	8.768665554041947	0.1530420849242447	0	0	0	0.5785201039731477	1.007505372278148	13.13739800205557	-1.692909881626189	-4.668010503666346	-4.01610796653344	5.742833330786173	102.6694814873675	0	0	-1.601751040893878	-3.515007098690133	-7.262013138569374	5.723663604810106	118.619418512026	0	0
0.24	0.4825040409614755	0.753236592992368	31.95458661931763	0	0.9399999999999999	0	8.992280203453353	-3.763717492191615	-3.100836304921505	8.933300570283015	0.1559155080217257	0	0	0	8.992280203453353	-3.763717492191615	-3.100836304921505	8.933300570283015	0.1559155080217257	0	0	0	0.5739400062465106	1.004309952187953	13.10368137498589	-1.70032835164218	-4.685457396973828	-4.003878106426953	5.752860185309151	102.6376841223873	0	0	-1.588184667095967	-3.530734050808117	-7.22234058336239	5.728028831912583	118.5526825652311	0	0
0.26	0.4860556928085524	0.7537774294862083	31.99324428593337	0	0.9399999999999999	0	9.2391078116464	-3.853657233496295	-3.180211729463556	9.163528621497454	0.1599337455458678	0	0	0	9.2391078116464	-3.853657233496295	-3.180211729463556	9.163528621497454	0.1599337455458678	0	0	0	0.5777902203874382	1.000162626547278	13.06393659555034	-1.713206810336496	-4.677168227410186	-4.012244310438902	5.763793991817129	102.660364943492	0	0	-1.620275110878852	-3.528857630760724	-7.2147080688529	5.746839198494516	118.5543097780146	0	0
0.28	0.4931176284060402	0.7532923783462293	32.0257017830934	0	0.9399999999999999	0	9.477171102440618	-3.935971557135092	-3.255797548361955	9.375301821729099	0.1636298851573952	0	0	0	9.477171102440618	-3.935971557135092	-3.255797548361955	9.375301821729099	0.1636298851573952	0	0	0	0.5842242552180166	0.9931254115377933	13.03184095036442	-1.713541546610441	-4.670443182849136	-4.025084245667403	5.715918272198738	102.645659193497	0	0	-1.624176545142139	-3.547757570219511	-7.221091702501773	5.698297620892141	118.5558821267188	0	0
0.3	0.4840137161406102	0.755954409984506	32.16068695483045	0	0.9399999999999999	0	10.38845261081593	-4.267597947367863	-3.54476785177169	10.27863337389249	0.1793959949797973	0	0	0	10.38845261081593	-4.267597947367863	-3.54476785177169	10.27863337389249	0.1793959949797973	0	0	0	0.5869120946703072	0.982209502775073	12.89661500611146	-1.722360844794232	-4.654698901503952	-3.972583046888202	5.737554839781874	102.5771366740431	0	0	-1.624600343813948	-3.548961967967183	-7.200856616983029	5.744488730567361	118.4972315210066	0	0
0.32	0.4844394219616446	0.7646024893258639	32.19310753833122	0	0.9399999999999999	0	10.57803797119383	-4.331729369901031	-3.603419304078701	10.46181176398421	0.1825930610054004	0	0	0	10.57803797119383	-4.331729369901031	-3.603419304078701	10.46181176398421	0.1825930610054004	0	0	0	0.5928189849202555	0.9871079488547785	12.84663567808916	-1.74407661592237	-4.671443870469097	-3.956672832612799	5.767722655684114	102.6315299301117	0	0	-1.641438127584339	-3.530827565774389	-7.246825855588042	5.728277362102172	118.5951160201267	0	0
